<?xml version="1.0" encoding="UTF-8"?>
<svg version="1.1" xmlns="http://www.w3.org/2000/svg" width="360" height="210">
<path d="M0 0 C15.035625 -0.04125 30.07125 -0.0825 45.5625 -0.125 C50.28119385 -0.14320801 54.9998877 -0.16141602 59.86157227 -0.18017578 C65.69714355 -0.18920898 65.69714355 -0.18920898 68.44322205 -0.19088745 C70.33007251 -0.1939256 72.2169195 -0.20088971 74.10374451 -0.21115112 C95.87722088 -0.32347582 116.66425877 0.6488841 133.9921875 15.734375 C145.34201629 27.53819694 149.51946559 44.06411046 149.35400391 60.02539062 C148.79836718 76.27677981 143.40790312 89.42309091 132 101 C116.34488242 114.23401158 98.26323511 117.37109829 78.26171875 117.1953125 C77.15429321 117.19329834 76.04686768 117.19128418 74.90588379 117.18920898 C70.83304607 117.1788729 66.76026815 117.15095217 62.6875 117.125 C53.550625 117.08375 44.41375 117.0425 35 117 C35 137.13 35 157.26 35 178 C23.45 178 11.9 178 0 178 C0 119.26 0 60.52 0 0 Z M35 29 C35 48.8 35 68.6 35 89 C44.549375 88.896875 54.09875 88.79375 63.9375 88.6875 C66.93577881 88.66260498 69.93405762 88.63770996 73.02319336 88.61206055 C75.42042577 88.57975198 77.81764414 88.54637564 80.21484375 88.51171875 C82.05665222 88.50235291 82.05665222 88.50235291 83.93566895 88.49279785 C93.41112508 88.33492142 101.46120815 87.13622592 109 81 C115.61105035 72.55254677 116.86645695 62.16950655 115.6015625 51.703125 C113.8885258 43.76269604 110.73425172 37.13840795 103.75 32.625 C95.32732282 28.61049809 86.13055658 28.72240654 76.9921875 28.8046875 C75.38549194 28.80770874 75.38549194 28.80770874 73.74633789 28.81079102 C69.78918097 28.82116401 65.83208566 28.84908573 61.875 28.875 C53.00625 28.91625 44.1375 28.9575 35 29 Z " fill="#60a5fa" transform="translate(17,16)"/>
<path d="M0 0 C5.15921743 -0.22320235 10.31560509 -0.38610225 15.47851562 -0.49438477 C17.23259439 -0.53953126 18.98633651 -0.60086921 20.73925781 -0.67895508 C35.19089131 -1.30639547 35.19089131 -1.30639547 39.27905273 1.64575195 C40.88387238 4.02043873 41.91928045 6.34769788 43 9 C44.06404909 10.80323216 45.15543909 12.59053046 46.26953125 14.36328125 C47.45250827 16.34516923 48.63339447 18.32830628 49.8125 20.3125 C51.14125376 22.53816254 52.47070745 24.76340732 53.80078125 26.98828125 C54.1430777 27.56111847 54.48537415 28.13395569 54.83804321 28.72415161 C58.69274744 35.16925303 62.59625925 41.58452854 66.5 48 C71.86240756 56.81602289 77.19919347 65.64674293 82.5 74.5 C87.95023748 83.60102684 93.43187572 92.68241473 98.9375 101.75 C99.28490234 102.32242432 99.63230469 102.89484863 99.99023438 103.48461914 C104.96249104 111.67582007 109.97787325 119.83904403 115 128 C115.33 85.76 115.66 43.52 116 0 C127.88 0 139.76 0 152 0 C152 58.74 152 117.48 152 178 C137.48 178 122.96 178 108 178 C101.92382416 168.27811866 95.8706463 158.55736721 89.9375 148.75 C89.20919081 147.54826404 88.48075309 146.34660598 87.75219727 145.14501953 C85.87254694 142.04456696 83.99396837 138.94346672 82.11572266 135.84216309 C78.89149304 130.51865662 75.6656041 125.19615795 72.4375 119.875 C72.08689514 119.29702667 71.73629028 118.71905334 71.37506104 118.12356567 C65.55817666 108.53745655 59.69322345 98.98156164 53.80834961 89.43701172 C49.51556641 82.47204389 45.24777429 75.49249928 41 68.5 C36.06639779 60.38050785 31.10606951 52.27796075 26.125 44.1875 C25.46741699 43.11862549 24.80983398 42.04975098 24.13232422 40.94848633 C20.97417181 35.81792908 17.81057641 30.69088579 14.63186646 25.57304382 C13.15048001 23.18704467 11.67199561 20.79925405 10.19378662 18.4112854 C9.14914016 16.7264343 8.10025379 15.04421437 7.05126953 13.36206055 C6.1016333 11.82739136 6.1016333 11.82739136 5.1328125 10.26171875 C4.57480957 9.36412842 4.01680664 8.46653809 3.44189453 7.54174805 C2.04652168 5.08200766 0.98111473 2.64877148 0 0 Z " fill="#3b82f6" transform="translate(193,16)"/>
<path d="M0 0 C4.16678976 0.32823727 5.81610717 2.70246942 8.4375 5.75 C14.48633286 12.62938625 20.98349464 19.05106814 27.5007019 25.48156738 C28.8681663 26.83092886 30.23295843 28.18299681 31.59765625 29.53515625 C32.79660522 30.71670288 32.79660522 30.71670288 34.01977539 31.92211914 C36 34 36 34 38 37 C37.48275862 40.51724138 37.48275862 40.51724138 36 42 C31.79799588 42.24284787 27.59008323 42.22855021 23.38183594 42.24023438 C21.27237885 42.24989749 19.16391386 42.2808863 17.0546875 42.3125 C15.70833912 42.31903431 14.36198376 42.3242831 13.015625 42.328125 C11.17919434 42.34214355 11.17919434 42.34214355 9.30566406 42.35644531 C5.72327328 41.97016093 3.85472159 41.15646325 1 39 C-0.57746049 35.84507902 -0.26258881 32.43420844 -0.3515625 28.96484375 C-0.37471527 28.1709877 -0.39786804 27.37713165 -0.42172241 26.55921936 C-0.46935881 24.88060875 -0.51459328 23.20192852 -0.55761719 21.52319336 C-0.62482448 18.94423512 -0.70253575 16.36573912 -0.78125 13.78710938 C-0.82615434 12.15887151 -0.87044611 10.53061662 -0.9140625 8.90234375 C-0.93796051 8.12632309 -0.96185852 7.35030243 -0.98648071 6.55076599 C-1.0301686 4.70102102 -1.02054088 2.8501468 -1 1 C-0.67 0.67 -0.34 0.34 0 0 Z " fill="#2563eb" transform="translate(192,154)"/>
<path d="M0 0 C5.15921743 -0.22320235 10.31560509 -0.38610225 15.47851562 -0.49438477 C17.23259439 -0.53953126 18.98633651 -0.60086921 20.73925781 -0.67895508 C35.17114016 -1.30553794 35.17114016 -1.30553794 39.25927734 1.61279297 C40.87088196 3.99434452 41.90486578 6.34244595 43 9 C44.16944897 10.97905456 45.36653726 12.94195086 46.5859375 14.890625 C47.85127189 17.00903648 49.11422949 19.12886916 50.375 21.25 C55.5053222 29.89642399 55.5053222 29.89642399 60.7890625 38.44921875 C61.17271973 39.05668945 61.55637695 39.66416016 61.95166016 40.29003906 C62.91944143 41.8109026 63.89679486 43.32566371 64.875 44.83984375 C65.24625 45.55269531 65.6175 46.26554687 66 47 C65.505 47.99 65.505 47.99 65 49 C64.34 47.68 63.68 46.36 63 45 C61.02 45.495 61.02 45.495 59 46 C58.67 45.01 58.34 44.02 58 43 C58.66 43 59.32 43 60 43 C58.13433512 39.37206002 58.13433512 39.37206002 55 37 C55 35.68 55 34.36 55 33 C53.68 33 52.36 33 51 33 C50.67 32.01 50.34 31.02 50 30 C49.34 30 48.68 30 48 30 C47.8453125 28.576875 47.8453125 28.576875 47.6875 27.125 C47.0089081 22.26508446 45.4914524 17.66196126 44 13 C42.68 13 41.36 13 40 13 C39.731875 12.21625 39.46375 11.4325 39.1875 10.625 C38.15185568 7.71885077 38.15185568 7.71885077 35 6 C34.34 6.66 33.68 7.32 33 8 C32.34 6.68 31.68 5.36 31 4 C28.22949974 3.8053162 25.45886998 3.61897208 22.6875 3.4375 C21.90181641 3.38142578 21.11613281 3.32535156 20.30664062 3.26757812 C19.54931641 3.21923828 18.79199219 3.17089844 18.01171875 3.12109375 C17.31522217 3.0739624 16.61872559 3.02683105 15.90112305 2.97827148 C13.77360172 2.90581885 13.77360172 2.90581885 11 4 C8.3125 3.0625 8.3125 3.0625 6 2 C6.33 3.98 6.66 5.96 7 8 C8.134375 8.12375 9.26875 8.2475 10.4375 8.375 C11.613125 8.58125 12.78875 8.7875 14 9 C14.33 9.66 14.66 10.32 15 11 C13.68 11.33 12.36 11.66 11 12 C11.67732884 15.98544216 13.66954638 19.19131416 15.6875 22.625 C16.22117188 23.54563232 16.22117188 23.54563232 16.765625 24.48486328 C19.79075945 29.68804032 22.8721192 34.85795353 26 40 C26.66 39.34 27.32 38.68 28 38 C28 39.65 28 41.3 28 43 C28.99 43 29.98 43 31 43 C31.33 45.97 31.66 48.94 32 52 C29.46549323 49.46549323 27.97411658 47.53416212 26.171875 44.51953125 C25.35323975 43.16057739 25.35323975 43.16057739 24.51806641 41.77416992 C23.93460449 40.79681885 23.35114258 39.81946777 22.75 38.8125 C18.79941286 32.24518778 14.83128147 25.69292908 10.7421875 19.2109375 C9.71013184 17.57354614 9.71013184 17.57354614 8.65722656 15.90307617 C7.31625888 13.78127351 5.97192586 11.66159351 4.62402344 9.54418945 C4.01848633 8.58472412 3.41294922 7.62525879 2.7890625 6.63671875 C2.24975098 5.78811279 1.71043945 4.93950684 1.15478516 4.06518555 C0 2 0 2 0 0 Z " fill="#60a5fa" transform="translate(193,16)"/>
<path d="M0 0 C22.35843294 -0.08021762 22.35843294 -0.08021762 31.97070312 -0.09765625 C38.50109147 -0.10956034 45.03142313 -0.12356404 51.56176758 -0.15087891 C56.8332169 -0.17278733 62.10460535 -0.18460616 67.37609673 -0.18975449 C69.3760823 -0.19341821 71.37606496 -0.20057137 73.37602425 -0.21146011 C93.57410095 -0.31694324 112.16038356 0.33765275 129 13 C127.14453125 13.609375 127.14453125 13.609375 125 14 C123.29803595 12.7120272 121.63654821 11.37013339 120 10 C114.65606118 7.05538065 109.95008212 6.55660053 103.890625 6.18359375 C100.54842513 5.97131889 97.30494523 5.52578674 94 5 C94 5.66 94 6.32 94 7 C93.34 7 92.68 7 92 7 C91.505 5.02 91.505 5.02 91 3 C80.49074259 2.95370163 69.98150937 2.91814352 59.47217083 2.89637566 C54.59249461 2.88592927 49.71288807 2.87175448 44.83325195 2.84912109 C40.12595241 2.82742319 35.41871997 2.81543781 30.71137428 2.81024551 C28.91359208 2.80654426 27.11581363 2.79931684 25.31805992 2.78853989 C22.80399962 2.7740655 20.29021817 2.77202035 17.77612305 2.77294922 C17.02949905 2.76575867 16.28287506 2.75856812 15.5136261 2.75115967 C11.78487162 2.76611083 10.1871011 2.87526594 7 5 C6.01 4.01 5.02 3.02 4 2 C4 2.66 4 3.32 4 4 C3.34 4 2.68 4 2 4 C1.67 28.75 1.34 53.5 1 79 C0.67 79 0.34 79 0 79 C0 52.93 0 26.86 0 0 Z " fill="#93c5fd" transform="translate(18,16)"/>
<path d="M0 0 C3.875 0.875 3.875 0.875 5 2 C4.61759729 11.17766508 2.32291987 19.98285337 0.18920898 28.87988281 C-0.44208453 31.51916681 -1.05850145 34.16164079 -1.67382812 36.8046875 C-2.0720347 38.48458431 -2.47109219 40.16427969 -2.87109375 41.84375 C-3.05449814 42.6332605 -3.23790253 43.422771 -3.42686462 44.23620605 C-4.77023975 49.77023975 -4.77023975 49.77023975 -7 52 C-9.625 51.625 -9.625 51.625 -12 51 C-11.37398171 42.74794069 -9.52575603 34.79588397 -7.67138672 26.75195312 C-7.12513212 24.37557477 -6.59143797 21.99660411 -6.05859375 19.6171875 C-5.70908804 18.08576506 -5.35885237 16.554509 -5.0078125 15.0234375 C-4.85144318 14.32221771 -4.69507385 13.62099792 -4.53396606 12.89852905 C-3.46838713 8.33498063 -1.9536268 4.26189065 0 0 Z " fill="#7E8383" transform="translate(215,91)"/>
<path d="M0 0 C0.33 0 0.66 0 1 0 C1.00423194 0.76145356 1.00846388 1.52290712 1.01282406 2.30743504 C1.11617784 20.84461703 1.22482264 39.38176112 1.33933926 57.9188776 C1.39459157 66.88332398 1.4480603 75.84777435 1.49731445 84.81225586 C1.54025433 92.62668474 1.58655678 100.44108526 1.63687855 108.25547022 C1.66340065 112.39220331 1.68825145 116.52893106 1.70907402 120.6656971 C1.72873926 124.56197572 1.75291178 128.45820076 1.78049088 132.35443115 C1.78980919 133.78181924 1.79750291 135.20921904 1.80341911 136.63662529 C1.81176964 138.59164157 1.82663365 140.54662674 1.84178162 142.50160217 C1.84823417 143.59392686 1.85468672 144.68625154 1.8613348 145.81167698 C2.01130531 149.25994247 2.47961126 152.58982125 3 156 C3.07271451 157.68494381 3.10867897 159.37211767 3.09765625 161.05859375 C3.09282227 162.37827148 3.09282227 162.37827148 3.08789062 163.72460938 C3.07951172 164.61986328 3.07113281 165.51511719 3.0625 166.4375 C3.05798828 167.35982422 3.05347656 168.28214844 3.04882812 169.23242188 C3.03713938 171.48835048 3.02075455 173.74413967 3 176 C3.92897095 175.99214478 3.92897095 175.99214478 4.87670898 175.98413086 C7.73029533 175.96311927 10.58386531 175.95026386 13.4375 175.9375 C14.89833008 175.92493164 14.89833008 175.92493164 16.38867188 175.91210938 C17.35224609 175.90888672 18.31582031 175.90566406 19.30859375 175.90234375 C20.18314209 175.89710693 21.05769043 175.89187012 21.95874023 175.88647461 C25.98681391 176.03683619 29.99377484 176.55486387 34 177 C34 157.2 34 137.4 34 117 C34.33 117 34.66 117 35 117 C35 137.13 35 157.26 35 178 C23.45 178 11.9 178 0 178 C0 119.26 0 60.52 0 0 Z " fill="#1e40af" transform="translate(17,16)"/>
<path d="M0 0 C4.94000647 0.9118868 7.65272784 3.8717217 11.25 7.1875 C11.8996875 7.75275391 12.549375 8.31800781 13.21875 8.90039062 C14.13914063 9.7444043 14.13914063 9.7444043 15.078125 10.60546875 C15.63918945 11.11231201 16.20025391 11.61915527 16.77832031 12.14135742 C18.58907522 14.89620897 18.42843296 16.77387924 18 20 C16.50292969 22.25756836 16.50292969 22.25756836 14.421875 24.33984375 C13.67292969 25.09201172 12.92398438 25.84417969 12.15234375 26.61914062 C11.35957031 27.38419922 10.56679687 28.14925781 9.75 28.9375 C8.97269531 29.72962891 8.19539062 30.52175781 7.39453125 31.33789062 C3.03353909 35.63551794 3.03353909 35.63551794 1 37 C-1.25683594 36.71313477 -1.25683594 36.71313477 -3 36 C-3.6875 34.23828125 -3.6875 34.23828125 -4 32 C-2.8125 30.10546875 -2.8125 30.10546875 -1 28.1875 C-0.35933594 27.50042969 0.28132812 26.81335938 0.94140625 26.10546875 C1.62074219 25.41066406 2.30007812 24.71585938 3 24 C3.66902344 23.31550781 4.33804688 22.63101563 5.02734375 21.92578125 C6.67092133 20.26875927 8.32699739 18.62723658 10 17 C9.21753906 16.24074219 8.43507812 15.48148438 7.62890625 14.69921875 C6.60650804 13.69558014 5.58438701 12.69165911 4.5625 11.6875 C3.7880957 10.93823242 3.7880957 10.93823242 2.99804688 10.17382812 C0.59409824 7.80130365 -0.91656793 6.25029621 -2 3 C-1.34 2.01 -0.68 1.02 0 0 Z " fill="#6D7677" transform="translate(224,101)"/>
<path d="M0 0 C0.34375 2.13671875 0.34375 2.13671875 0 5 C-1.78663019 7.1491769 -3.46395503 8.93903847 -5.5 10.8125 C-6.02464844 11.31458984 -6.54929688 11.81667969 -7.08984375 12.33398438 C-8.38222532 13.56762133 -9.68969599 14.78541625 -11 16 C-9.60005228 19.24759446 -7.9554506 21.11620667 -5.3125 23.4375 C-3.421875 25.25 -3.421875 25.25 -2 27 C-2.0625 29.9375 -2.0625 29.9375 -3 32 C-4.485 32.495 -4.485 32.495 -6 33 C-11.29005609 29.27291503 -17.7366062 23.89344529 -19.77661133 17.60668945 C-20 15 -20 15 -18.81591797 13.05541992 C-18.21408691 12.45318604 -17.61225586 11.85095215 -16.9921875 11.23046875 C-16.33476562 10.56982422 -15.67734375 9.90917969 -15 9.22851562 C-14.29875 8.55498047 -13.5975 7.88144531 -12.875 7.1875 C-12.19695312 6.49462891 -11.51890625 5.80175781 -10.8203125 5.08789062 C-5.19410095 -0.44564108 -5.19410095 -0.44564108 0 0 Z " fill="#767D7E" transform="translate(204,101)"/>
<path d="M0 0 C0.33 0 0.66 0 1 0 C1 16.5 1 33 1 50 C-6.05375 50.33 -13.1075 50.66 -20.375 51 C-22.58106934 51.14566406 -24.78713867 51.29132813 -27.06005859 51.44140625 C-40.52283251 51.96090549 -40.52283251 51.96090549 -44.86846924 48.52093506 C-48.10341593 44.74839336 -50.18176946 40.48334662 -52.13592529 35.9432373 C-53.24066897 33.45875406 -54.6453933 31.25868833 -56.1640625 29.0078125 C-56.58300781 28.34652344 -57.00195312 27.68523437 -57.43359375 27.00390625 C-58.26380167 25.69462753 -59.09739855 24.38749421 -59.93359375 23.08203125 C-63 18.22445437 -63 18.22445437 -63 16 C-62.34 16 -61.68 16 -61 16 C-59.7109375 17.75 -59.7109375 17.75 -58.375 20 C-57.92898438 20.7425 -57.48296875 21.485 -57.0234375 22.25 C-56.51683594 23.11625 -56.51683594 23.11625 -56 24 C-55.01 23.67 -54.02 23.34 -53 23 C-50.4375 25.1875 -50.4375 25.1875 -48 28 C-48.375 30.375 -48.375 30.375 -49 33 C-48.0213863 36.78377123 -48.0213863 36.78377123 -46 40 C-43.42267086 41.05167527 -43.42267086 41.05167527 -41 41 C-40.375 42.8125 -40.375 42.8125 -40 45 C-40.66 45.99 -41.32 46.98 -42 48 C-40.251427 47.99214478 -40.251427 47.99214478 -38.4675293 47.98413086 C-34.14575975 47.96604129 -29.82399356 47.95455347 -25.50219727 47.94506836 C-23.63109779 47.94003721 -21.76000225 47.93321165 -19.88891602 47.92456055 C-17.20067372 47.91244171 -14.51248336 47.90675953 -11.82421875 47.90234375 C-10.98662521 47.89718246 -10.14903168 47.89202118 -9.28605652 47.88670349 C-5.93624258 47.88637936 -3.20053544 47.93315485 0 49 C0 32.83 0 16.66 0 0 Z " fill="#1e40af" transform="translate(344,144)"/>
<path d="M0 0 C0.99 0.33 1.98 0.66 3 1 C-5.71560814 12.84321872 -19.75824673 18.69929154 -33.88354492 21.04858398 C-40.87038821 22.09870519 -47.68427102 22.2570358 -54.73828125 22.1953125 C-56.60845161 22.19106766 -56.60845161 22.19106766 -58.5164032 22.18673706 C-62.44853847 22.17565658 -66.38043507 22.15057519 -70.3125 22.125 C-72.99934316 22.11380887 -75.68619267 22.10569356 -78.37304688 22.09765625 C-84.91544425 22.07575714 -91.45770507 22.04240283 -98 22 C-98 21.34 -98 20.68 -98 20 C-70.775 19.505 -70.775 19.505 -43 19 C-43 18.67 -43 18.34 -43 18 C-41.96359375 17.93941406 -40.9271875 17.87882812 -39.859375 17.81640625 C-38.48957127 17.73196629 -37.11978025 17.64732003 -35.75 17.5625 C-35.06808594 17.52318359 -34.38617188 17.48386719 -33.68359375 17.44335938 C-30.34806049 17.23286456 -27.20021258 16.98149068 -24 16 C-23.23300781 15.77441406 -22.46601562 15.54882812 -21.67578125 15.31640625 C-20.89589844 15.06761719 -20.11601562 14.81882812 -19.3125 14.5625 C-18.13107422 14.19318359 -18.13107422 14.19318359 -16.92578125 13.81640625 C-14.81278663 13.16635026 -14.81278663 13.16635026 -14 11 C-12.68 11 -11.36 11 -10 11 C-10 10.01 -10 9.02 -10 8 C-8.68 8 -7.36 8 -6 8 C-6 7.01 -6 6.02 -6 5 C-5.195625 4.731875 -4.39125 4.46375 -3.5625 4.1875 C-2.716875 3.795625 -1.87125 3.40375 -1 3 C-0.67 2.01 -0.34 1.02 0 0 Z " fill="#3b82f6" transform="translate(150,111)"/>
<path d="M0 0 C11.22 0 22.44 0 34 0 C34 23.1 34 46.2 34 70 C33.67 70 33.34 70 33 70 C33 47.23 33 24.46 33 1 C32.01 1.33 31.02 1.66 30 2 C27.94645263 2.07153971 25.8906182 2.0839931 23.8359375 2.0625 C22.02996094 2.05089844 22.02996094 2.05089844 20.1875 2.0390625 C18.929375 2.02617187 17.67125 2.01328125 16.375 2 C13.88285464 1.97462174 11.39066043 1.95354435 8.8984375 1.9375 C7.23820557 1.92009766 7.23820557 1.92009766 5.54443359 1.90234375 C3.0645563 1.70895453 3.0645563 1.70895453 2 3 C1.87513046 5.37201547 1.81399948 7.71640343 1.79467773 10.09008789 C1.78477814 10.83150528 1.77487854 11.57292267 1.76467896 12.33680725 C1.73297534 14.79872393 1.70827174 17.26065993 1.68359375 19.72265625 C1.66303186 21.42517105 1.6420356 23.12768065 1.62062073 24.83018494 C1.56532101 29.31987309 1.51594672 33.80960792 1.46777344 38.29937744 C1.41761594 42.87736178 1.36189992 47.45527803 1.30664062 52.03320312 C1.19896249 61.0220773 1.09753912 70.0110105 1 79 C0.67 79 0.34 79 0 79 C0 52.93 0 26.86 0 0 Z " fill="#60a5fa" transform="translate(310,17)"/>
<path d="M0 0 C0.33 0 0.66 0 1 0 C1 20.13 1 40.26 1 61 C-10.22 61 -21.44 61 -33 61 C-33 51.43 -33 41.86 -33 32 C-32.67 32 -32.34 32 -32 32 C-30.98105924 37.84888043 -30.88201547 43.50919169 -30.9375 49.4375 C-30.94201172 50.35982422 -30.94652344 51.28214844 -30.95117188 52.23242188 C-30.96286062 54.48835048 -30.97924545 56.74413967 -31 59 C-30.38068604 58.99476318 -29.76137207 58.98952637 -29.12329102 58.98413086 C-26.26970467 58.96311927 -23.41613469 58.95026386 -20.5625 58.9375 C-19.58861328 58.92912109 -18.61472656 58.92074219 -17.61132812 58.91210938 C-16.1659668 58.90727539 -16.1659668 58.90727539 -14.69140625 58.90234375 C-13.81685791 58.89710693 -12.94230957 58.89187012 -12.04125977 58.88647461 C-8.01318609 59.03683619 -4.00622516 59.55486387 0 60 C0 40.2 0 20.4 0 0 Z " fill="#2563eb" transform="translate(51,133)"/>
<path d="M0 0 C1.24910156 -0.01836914 1.24910156 -0.01836914 2.5234375 -0.03710938 C3.71839844 -0.04000977 3.71839844 -0.04000977 4.9375 -0.04296875 C6.03384766 -0.04913208 6.03384766 -0.04913208 7.15234375 -0.05541992 C9 0.1875 9 0.1875 11 2.1875 C10.625 4.8125 10.625 4.8125 10 7.1875 C6.68751813 7.21638146 3.37506833 7.23425799 0.0625 7.25 C-0.88302734 7.25837891 -1.82855469 7.26675781 -2.80273438 7.27539062 C-4.15141602 7.28022461 -4.15141602 7.28022461 -5.52734375 7.28515625 C-6.77632446 7.29301147 -6.77632446 7.29301147 -8.05053711 7.30102539 C-10 7.1875 -10 7.1875 -11 6.1875 C-11.04063832 4.52132885 -11.042721 2.85361905 -11 1.1875 C-7.58173253 -0.52163373 -3.76645237 0.00291521 0 0 Z " fill="#5D889B" transform="translate(224,148.8125)"/>
<path d="M0 0 C5.21438043 -0.0988364 10.42821643 -0.17145206 15.64331055 -0.21972656 C17.41749569 -0.23984903 19.19161446 -0.2671503 20.96557617 -0.30175781 C23.51497767 -0.35024992 26.06350295 -0.37296153 28.61328125 -0.390625 C29.40712723 -0.41127014 30.20097321 -0.43191528 31.01887512 -0.45318604 C33.26293945 -0.45410156 33.26293945 -0.45410156 37 0 C39.02416992 2.02441406 39.02416992 2.02441406 40 4 C39.67 4.66 39.34 5.32 39 6 C38.66444092 5.35256836 38.32888184 4.70513672 37.9831543 4.03808594 C35.55122229 1.53879154 33.88220668 1.49304384 30.47627258 1.39434814 C29.74804794 1.39311951 29.0198233 1.39189087 28.26953125 1.390625 C27.14390022 1.36582062 27.14390022 1.36582062 25.99552917 1.34051514 C23.60110344 1.29196948 21.20731298 1.27065115 18.8125 1.25 C17.18811897 1.22184557 15.56376761 1.19191888 13.93945312 1.16015625 C9.95968773 1.08620961 5.98027633 1.03667583 2 1 C2.57572754 1.8880835 3.15145508 2.77616699 3.74462891 3.69116211 C8.4127681 10.91039412 12.98492062 18.16960632 17.375 25.5625 C17.88160156 26.41134766 18.38820312 27.26019531 18.91015625 28.13476562 C19.86519975 29.73527816 20.81937792 31.33630754 21.77246094 32.93798828 C23.17588869 35.29545662 24.58631624 37.64866885 26 40 C26.66 39.34 27.32 38.68 28 38 C28 39.65 28 41.3 28 43 C28.99 43 29.98 43 31 43 C31.33 45.97 31.66 48.94 32 52 C29.46549323 49.46549323 27.97411658 47.53416212 26.171875 44.51953125 C25.35323975 43.16057739 25.35323975 43.16057739 24.51806641 41.77416992 C23.93460449 40.79681885 23.35114258 39.81946777 22.75 38.8125 C18.79941286 32.24518778 14.83128147 25.69292908 10.7421875 19.2109375 C9.71013184 17.57354614 9.71013184 17.57354614 8.65722656 15.90307617 C7.31625888 13.78127351 5.97192586 11.66159351 4.62402344 9.54418945 C4.01848633 8.58472412 3.41294922 7.62525879 2.7890625 6.63671875 C2.24975098 5.78811279 1.71043945 4.93950684 1.15478516 4.06518555 C0 2 0 2 0 0 Z " fill="#93c5fd" transform="translate(193,16)"/>
<path d="M0 0 C1.02867187 0.19142578 1.02867187 0.19142578 2.078125 0.38671875 C2.40234375 2.51953125 2.40234375 2.51953125 2.078125 5.38671875 C0.40129583 7.5892089 -1.14734076 9.35761363 -3.109375 11.26171875 C-3.59212891 11.7721875 -4.07488281 12.28265625 -4.57226562 12.80859375 C-6.02734375 14.25390625 -6.02734375 14.25390625 -8.921875 16.38671875 C-11.671875 16.1171875 -11.671875 16.1171875 -13.921875 15.38671875 C-15.7573549 16.7205045 -15.7573549 16.7205045 -16.921875 18.38671875 C-16.63321784 12.91254198 -13.37006131 10.20362042 -9.671875 6.57421875 C-9.09824219 5.97673828 -8.52460938 5.37925781 -7.93359375 4.76367188 C-3.6365472 0.48130772 -3.6365472 0.48130772 0 0 Z " fill="#828886" transform="translate(201.921875,100.61328125)"/>
<path d="M0 0 C30 0 30 0 33 2 C31.97845825 1.98428955 31.97845825 1.98428955 30.9362793 1.96826172 C27.85339034 1.92671122 24.77056029 1.90067689 21.6875 1.875 C20.61564453 1.85824219 19.54378906 1.84148438 18.43945312 1.82421875 C16.89741211 1.81455078 16.89741211 1.81455078 15.32421875 1.8046875 C14.37635498 1.79421387 13.42849121 1.78374023 12.4519043 1.77294922 C9.74310751 1.82776125 9.74310751 1.82776125 7 4 C6.01 3.01 5.02 2.02 4 1 C4 1.66 4 2.32 4 3 C3.34 3 2.68 3 2 3 C1.67 27.75 1.34 52.5 1 78 C0.67 78 0.34 78 0 78 C0 52.26 0 26.52 0 0 Z " fill="#F67A68" transform="translate(18,17)"/>
<path d="M0 0 C0.33 0 0.66 0 1 0 C2.25392202 8.52062676 2.01277115 15.85091856 -1 24 C-1.66 24.66 -2.32 25.32 -3 26 C-5.625 25.625 -5.625 25.625 -8 25 C-7.505 20.545 -7.505 20.545 -7 16 C-6.34 16.33 -5.68 16.66 -5 17 C-4.72285156 15.85660156 -4.44570312 14.71320313 -4.16015625 13.53515625 C-3.79445622 12.04422535 -3.42856071 10.55334239 -3.0625 9.0625 C-2.88009766 8.30775391 -2.69769531 7.55300781 -2.50976562 6.77539062 C-1.11328125 1.11328125 -1.11328125 1.11328125 0 0 Z " fill="#707E80" transform="translate(211,117)"/>
<path d="M0 0 C2.33813845 2.84103415 3.61287132 5.28117191 4.625 8.8125 C4.86476562 9.62332031 5.10453125 10.43414062 5.3515625 11.26953125 C8.2037027 23.27944693 7.83969313 36.03272183 5 48 C4.67 48 4.34 48 4 48 C3.97494385 47.10804932 3.9498877 46.21609863 3.92407227 45.29711914 C3.82821882 41.94789975 3.72903508 38.59881176 3.62768555 35.24975586 C3.58470988 33.80773698 3.54301352 32.36567933 3.50268555 30.92358398 C3.92486116 18.06375643 3.92486116 18.06375643 0.96313477 6.01586914 C0 4 0 4 0 0 Z " fill="#3b82f6" transform="translate(159,45)"/>
<path d="M0 0 C0.99 0.33 1.98 0.66 3 1 C2.34 1 1.68 1 1 1 C1.33 8.59 1.66 16.18 2 24 C2.33 24 2.66 24 3 24 C3 28.62 3 33.24 3 38 C4.32 38 5.64 38 7 38 C7 38.66 7 39.32 7 40 C16.57 40.33 26.14 40.66 36 41 C36 41.33 36 41.66 36 42 C31.81912848 42.07441989 27.6386127 42.12872818 23.45727539 42.16479492 C22.03630859 42.1798376 20.61538787 42.20027704 19.19458008 42.22631836 C17.14653114 42.26290347 15.0990985 42.27977097 13.05078125 42.29296875 C11.20480347 42.31653442 11.20480347 42.31653442 9.3215332 42.34057617 C5.72079609 41.97137159 3.86466457 41.16918163 1 39 C-0.57746049 35.84507902 -0.26258881 32.43420844 -0.3515625 28.96484375 C-0.37471527 28.1709877 -0.39786804 27.37713165 -0.42172241 26.55921936 C-0.46935881 24.88060875 -0.51459328 23.20192852 -0.55761719 21.52319336 C-0.62482448 18.94423512 -0.70253575 16.36573912 -0.78125 13.78710938 C-0.82615434 12.15887151 -0.87044611 10.53061662 -0.9140625 8.90234375 C-0.93796051 8.12632309 -0.96185852 7.35030243 -0.98648071 6.55076599 C-1.0301686 4.70102102 -1.02054088 2.8501468 -1 1 C-0.67 0.67 -0.34 0.34 0 0 Z " fill="#1e3a8a" transform="translate(192,154)"/>
<path d="M0 0 C4.95628633 0.90878813 7.65722568 3.91280922 11.25 7.25 C11.8996875 7.82363281 12.549375 8.39726563 13.21875 8.98828125 C17.89970771 13.305383 17.89970771 13.305383 18.421875 16.921875 C18.28265625 17.60765625 18.1434375 18.2934375 18 19 C15.125 18.8125 15.125 18.8125 12 18 C11.27095914 16.35965807 10.61344757 14.68698082 10 13 C8.56239364 11.72212768 7.11875084 10.44679119 5.59765625 9.26953125 C3.19958734 7.36397527 1.13258657 5.1953097 -1 3 C-0.67 2.01 -0.34 1.02 0 0 Z " fill="#7A817F" transform="translate(224,101)"/>
<path d="M0 0 C2.72441178 2.46460033 4.46538619 5.18564128 6.35546875 8.32421875 C6.97744141 9.35224609 7.59941406 10.38027344 8.24023438 11.43945312 C8.88283203 12.51130859 9.52542969 13.58316406 10.1875 14.6875 C10.84169922 15.77095703 11.49589844 16.85441406 12.16992188 17.97070312 C13.78382371 20.64483244 15.3936759 23.32131433 17 26 C12.32335261 26 8.93230329 25.62153553 5 23 C5.33 21.35 5.66 19.7 6 18 C6.66 18 7.32 18 8 18 C7.2644843 16.29494087 6.52846038 14.59009797 5.7890625 12.88671875 C5.13484992 11.32243818 4.5570307 9.72646326 4 8.125 C3.505 7.073125 3.505 7.073125 3 6 C2.01 5.67 1.02 5.34 0 5 C0 3.35 0 1.7 0 0 Z " fill="#2563eb" transform="translate(291,118)"/>
<path d="M0 0 C4.57341499 1.14335375 5.4365694 2.2080848 8.4375 5.6875 C9.21867188 6.58597656 9.99984375 7.48445312 10.8046875 8.41015625 C11.52914062 9.26480469 12.25359375 10.11945313 13 11 C13.55945313 11.65871094 14.11890625 12.31742188 14.6953125 12.99609375 C15.8078459 14.32159783 16.90609349 15.65908234 18 17 C15 17 15 17 12.5625 14.8125 C10.92038851 13.01018251 9.33034452 11.1581474 7.8125 9.25 C6.19690923 6.92512612 6.19690923 6.92512612 4 6 C4 5.34 4 4.68 4 4 C3.34 4 2.68 4 2 4 C2.01160156 4.66902344 2.02320313 5.33804688 2.03515625 6.02734375 C2.11995022 15.05184469 1.59711025 24.00069546 1 33 C0.67 33 0.34 33 0 33 C0 22.11 0 11.22 0 0 Z " fill="#2563eb" transform="translate(193,155)"/>
<path d="M0 0 C11.22 0 22.44 0 34 0 C34 0.33 34 0.66 34 1 C33.34926514 1.02505615 32.69853027 1.0501123 32.02807617 1.07592773 C29.08101954 1.19193702 26.1342787 1.31464115 23.1875 1.4375 C21.65125977 1.49647461 21.65125977 1.49647461 20.08398438 1.55664062 C19.10107422 1.59853516 18.11816406 1.64042969 17.10546875 1.68359375 C16.19949951 1.72025146 15.29353027 1.75690918 14.36010742 1.79467773 C11.84951218 1.9208205 11.84951218 1.9208205 9 3 C6.3125 2.0625 6.3125 2.0625 4 1 C4.33 2.98 4.66 4.96 5 7 C6.134375 7.12375 7.26875 7.2475 8.4375 7.375 C9.613125 7.58125 10.78875 7.7875 12 8 C12.33 8.66 12.66 9.32 13 10 C12.38125 10.12375 11.7625 10.2475 11.125 10.375 C8.80879168 10.87197356 8.80879168 10.87197356 7 13 C5.82786955 11.21190303 4.66244474 9.41940875 3.5 7.625 C2.8503125 6.62726562 2.200625 5.62953125 1.53125 4.6015625 C0 2 0 2 0 0 Z " fill="#60a5fa" transform="translate(195,17)"/>
<path d="M0 0 C12.06208678 -0.83186805 24.08940549 3.1176427 34 10 C34.66 10.99 35.32 11.98 36 13 C33.75 13.25 33.75 13.25 31 13 C29.64426252 11.68945377 28.31387169 10.35251497 27 9 C22.45005364 6.6804195 18.12293159 5.46164799 13.11328125 4.52734375 C11 4 11 4 8.96484375 2.98046875 C6.08860854 1.54521023 3.16641369 1.36535543 0 1 C0 0.67 0 0.34 0 0 Z " fill="#93c5fd" transform="translate(111,17)"/>
<path d="M0 0 C2 1 2 1 3.625 4.4375 C5.18184889 9.35428297 5.32867708 14.13646393 5.375 19.25 C5.38869629 20.03044678 5.40239258 20.81089355 5.41650391 21.61499023 C5.38018534 26.18965687 5.02904264 29.33101878 2 33 C0.515 33.495 0.515 33.495 -1 34 C-0.77183594 33.06800781 -0.54367188 32.13601562 -0.30859375 31.17578125 C2.14744132 20.2833208 1.90275659 11.03926884 0 0 Z " fill="#3b82f6" transform="translate(130,59)"/>
<path d="M0 0 C2.60639453 1.22174744 3.6304319 2.4146114 5 4.9375 C4.67 6.2575 4.34 7.5775 4 8.9375 C0.7 8.6075 -2.6 8.2775 -6 7.9375 C-5.63287028 5.22074005 -5.27255401 3.32686287 -3.6875 1.0625 C-2 -0.0625 -2 -0.0625 0 0 Z " fill="#1e40af" transform="translate(225,186.0625)"/>
<path d="M0 0 C3.77019046 4.43604749 6.77562679 9.23925275 9.8125 14.1875 C10.5849707 15.41629883 10.5849707 15.41629883 11.37304688 16.66992188 C11.85451172 17.45302734 12.33597656 18.23613281 12.83203125 19.04296875 C13.27264893 19.75477295 13.7132666 20.46657715 14.16723633 21.19995117 C14.44204834 21.79396729 14.71686035 22.3879834 15 23 C14.67 23.66 14.34 24.32 14 25 C13.34 23.68 12.68 22.36 12 21 C10.68 21.33 9.36 21.66 8 22 C7.67 21.01 7.34 20.02 7 19 C7.66 19 8.32 19 9 19 C7.13433512 15.37206002 7.13433512 15.37206002 4 13 C3.3671875 10.93359375 3.3671875 10.93359375 2.875 8.4375 C2.70742187 7.61121094 2.53984375 6.78492188 2.3671875 5.93359375 C2.24601563 5.29550781 2.12484375 4.65742187 2 4 C1.34 4 0.68 4 0 4 C0 2.68 0 1.36 0 0 Z " fill="#3b82f6" transform="translate(244,40)"/>
<path d="M0 0 C6.27 0 12.54 0 19 0 C19 0.99 19 1.98 19 3 C9.595 3.495 9.595 3.495 0 4 C0 2.68 0 1.36 0 0 Z " fill="#6BA8CD" transform="translate(213,151)"/>
<path d="M0 0 C1.875 0.25 1.875 0.25 4 1 C4.6837045 2.32467746 5.34964186 3.65863633 6 5 C7.3153341 5.70151152 8.65117592 6.36525925 10 7 C12.25 8.875 12.25 8.875 14 11 C14 12.32 14 13.64 14 15 C10.96326631 13.48163315 8.81645034 11.00090431 6.4375 8.625 C5.93025391 8.13 5.42300781 7.635 4.90039062 7.125 C2.53300606 4.76707237 1.07146364 3.21439092 0 0 Z " fill="#646A6B" transform="translate(222,104)"/>
<path d="M0 0 C1.32 0.33 2.64 0.66 4 1 C4 1.99 4 2.98 4 4 C4.66 4 5.32 4 6 4 C6.45375 4.825 6.9075 5.65 7.375 6.5 C7.91125 7.325 8.4475 8.15 9 9 C10.32 9 11.64 9 13 9 C11.125 14.75 11.125 14.75 10 17 C8.32972219 14.35642999 6.6643902 11.70978008 5 9.0625 C4.52304688 8.30775391 4.04609375 7.55300781 3.5546875 6.77539062 C3.10351562 6.05673828 2.65234375 5.33808594 2.1875 4.59765625 C1.76855469 3.93258057 1.34960938 3.26750488 0.91796875 2.58227539 C0 1 0 1 0 0 Z " fill="#60a5fa" transform="translate(209,40)"/>
<path d="M0 0 C2.97 1.98 2.97 1.98 6 4 C5.7215625 5.36125 5.7215625 5.36125 5.4375 6.75 C5.04265379 9.68314324 5.05308428 11.2644657 6 14 C2.02502456 10.59287819 0.13206212 6.67239145 -2 2 C-1.34 1.34 -0.68 0.68 0 0 Z " fill="#1e40af" transform="translate(290,167)"/>
<path d="M0 0 C-0.33 2.31 -0.66 4.62 -1 7 C-1.99 6.67 -2.98 6.34 -4 6 C-4.6875 3.9375 -4.6875 3.9375 -5 2 C-5.66 2 -6.32 2 -7 2 C-7.33 1.01 -7.66 0.02 -8 -1 C-4.59745511 -2.2151946 -3.06748874 -1.86240388 0 0 Z " fill="#60a5fa" transform="translate(232,66)"/>
<path d="M0 0 C4.24846075 0.47205119 6.26819288 2.88877522 9 6 C9 6.66 9 7.32 9 8 C6.8125 8.3125 6.8125 8.3125 4 8 C1.1875 5.5 1.1875 5.5 -1 3 C-0.67 2.01 -0.34 1.02 0 0 Z " fill="#868B8D" transform="translate(224,101)"/>
<path d="M0 0 C0.99 0 1.98 0 3 0 C3.33 1.98 3.66 3.96 4 6 C5.134375 6.12375 6.26875 6.2475 7.4375 6.375 C8.613125 6.58125 9.78875 6.7875 11 7 C11.33 7.66 11.66 8.32 12 9 C11.38125 9.12375 10.7625 9.2475 10.125 9.375 C7.80879168 9.87197356 7.80879168 9.87197356 6 12 C4.99466333 10.37829621 3.99588093 8.75252763 3 7.125 C2.443125 6.22007813 1.88625 5.31515625 1.3125 4.3828125 C0 2 0 2 0 0 Z " fill="#60a5fa" transform="translate(196,18)"/>
<path d="M0 0 C1.32435978 3.97307934 0.18129186 6.80974568 -0.9375 10.6875 C-1.13279297 11.38939453 -1.32808594 12.09128906 -1.52929688 12.81445312 C-2.01199136 14.54508944 -2.50500846 16.27284066 -3 18 C-3.33 18 -3.66 18 -4 18 C-4.34183203 11.7330794 -3.44818504 6.79699775 -1 1 C-0.67 0.67 -0.34 0.34 0 0 Z " fill="#7C868B" transform="translate(209,118)"/>
<path d="M0 0 C1 3 1 3 0.1796875 5.3046875 C-2.37561611 10.33878862 -4.69828036 14.31281174 -9 18 C-7.9326074 13.64832246 -7.15654174 11.0934109 -4 8 C-2.80400932 5.96767758 -2.80400932 5.96767758 -1.8125 3.8125 C-1.46832031 3.09707031 -1.12414062 2.38164063 -0.76953125 1.64453125 C-0.51558594 1.10183594 -0.26164063 0.55914062 0 0 Z " fill="#3b82f6" transform="translate(162,93)"/>
<path d="M0 0 C0.99 0.33 1.98 0.66 3 1 C3.185625 2.11375 3.185625 2.11375 3.375 3.25 C3.87589514 5.98179311 3.87589514 5.98179311 5.125 8.1875 C5.41375 8.785625 5.7025 9.38375 6 10 C5.67 10.66 5.34 11.32 5 12 C3.0625 11.375 3.0625 11.375 1 10 C0.0987913 6.54536666 0 3.58088792 0 0 Z " fill="#60a5fa" transform="translate(243,89)"/>
<path d="M0 0 C2.6059614 1.3029807 2.724025 2.29287025 3.6875 5 C5.30006048 10.02312589 4.90005771 13.84512402 4 19 C3.67 19 3.34 19 3 19 C2.01 12.73 1.02 6.46 0 0 Z " fill="#3b82f6" transform="translate(130,59)"/>
<path d="M0 0 C1.9375 0.75 1.9375 0.75 4 2 C4.75 4.125 4.75 4.125 5 6 C4.34 6 3.68 6 3 6 C3.33 7.65 3.66 9.3 4 11 C2.68 11 1.36 11 0 11 C0.185625 10.4225 0.37125 9.845 0.5625 9.25 C1.04738567 6.75630228 0.69906422 5.40788787 0 3 C0 2.01 0 1.02 0 0 Z " fill="#60a5fa" transform="translate(248,53)"/>
<path d="M0 0 C2 1.25 2 1.25 4 3 C4 4.32 4 5.64 4 7 C4.66 7 5.32 7 6 7 C6.66 8.65 7.32 10.3 8 12 C6.68 12 5.36 12 4 12 C3.67 11.01 3.34 10.02 3 9 C2.34 9 1.68 9 1 9 C0.67 6.03 0.34 3.06 0 0 Z " fill="#60a5fa" transform="translate(240,37)"/>
<path d="M0 0 C3.08539112 2.72412697 5.11188908 6.09188781 7.25 9.5625 C7.81460938 10.44711914 7.81460938 10.44711914 8.390625 11.34960938 C9.3260331 12.86105004 10.17093646 14.42771031 11 16 C10.67 16.66 10.34 17.32 10 18 C5.17815699 12.64239666 1.58077021 7.11346594 0 0 Z " fill="#93c5fd" transform="translate(233,22)"/>
<path d="M0 0 C1.7492214 -0.08142927 3.49954542 -0.13938541 5.25 -0.1875 C6.22453125 -0.22230469 7.1990625 -0.25710937 8.203125 -0.29296875 C11.37468742 0.03924798 12.67040307 0.88672279 15 3 C11.30581799 4.231394 8.7943739 3.64432764 5 3 C5 3.66 5 4.32 5 5 C4.34 5 3.68 5 3 5 C2.87625 4.360625 2.7525 3.72125 2.625 3.0625 C2.315625 2.0415625 2.315625 2.0415625 2 1 C1.34 0.67 0.68 0.34 0 0 Z " fill="#F67361" transform="translate(107,18)"/>
<path d="M0 0 C2.97 0.495 2.97 0.495 6 1 C5.360625 1.103125 4.72125 1.20625 4.0625 1.3125 C3.381875 1.539375 2.70125 1.76625 2 2 C1.67 2.99 1.34 3.98 1 5 C-1.31 5.33 -3.62 5.66 -6 6 C-5.67 4.68 -5.34 3.36 -5 2 C-3.02 2.495 -3.02 2.495 -1 3 C-0.67 2.01 -0.34 1.02 0 0 Z " fill="#EF4B64" transform="translate(134,120)"/>
<path d="M0 0 C0.99 0.33 1.98 0.66 3 1 C3.73046875 2.84765625 3.73046875 2.84765625 4.1875 5.0625 C4.34605469 5.79597656 4.50460937 6.52945313 4.66796875 7.28515625 C4.83232422 8.13400391 4.83232422 8.13400391 5 9 C4.01 9.495 4.01 9.495 3 10 C-1.06153846 4.58461538 -1.06153846 4.58461538 -0.75 1.625 C-0.5025 1.08875 -0.255 0.5525 0 0 Z " fill="#D43D6C" transform="translate(284,158)"/>
<path d="M0 0 C0.33 0 0.66 0 1 0 C1.33 3.96 1.66 7.92 2 12 C1.34 11.01 0.68 10.02 0 9 C-0.99 9.66 -1.98 10.32 -3 11 C-2.69217504 9.35328588 -2.37860766 7.70764424 -2.0625 6.0625 C-1.88847656 5.14597656 -1.71445313 4.22945313 -1.53515625 3.28515625 C-1 1 -1 1 0 0 Z " fill="#6C7472" transform="translate(211,117)"/>
<path d="M0 0 C-1.65091778 4.29238623 -4.73754566 6.8793915 -8 10 C-8.99 9.67 -9.98 9.34 -11 9 C-9.54782324 7.49403892 -8.08807139 5.99537896 -6.625 4.5 C-5.40683594 3.24703125 -5.40683594 3.24703125 -4.1640625 1.96875 C-2 0 -2 0 0 0 Z " fill="#898E8E" transform="translate(201,107)"/>
<path d="M0 0 C3.875 0.875 3.875 0.875 5 2 C4.94921875 4.14453125 4.94921875 4.14453125 4.6875 6.8125 C4.60886719 7.68519531 4.53023437 8.55789062 4.44921875 9.45703125 C4.00244976 11.98613225 3.26661261 13.78213548 2 16 C1.97291433 14.39592672 1.95356517 12.7917215 1.9375 11.1875 C1.92589844 10.29417969 1.91429687 9.40085937 1.90234375 8.48046875 C2 6 2 6 3 3 C2.34 2.67 1.68 2.34 1 2 C0.67 1.34 0.34 0.68 0 0 Z " fill="#6B716F" transform="translate(215,91)"/>
<path d="M0 0 C2.63520741 2.40502363 4.40302943 5.0185849 6.25 8.0625 C7.06210937 9.37927734 7.06210937 9.37927734 7.890625 10.72265625 C8.25671875 11.47417969 8.6228125 12.22570312 9 13 C8.67 13.66 8.34 14.32 8 15 C7.67 14.01 7.34 13.02 7 12 C6.34 12 5.68 12 5 12 C4.16180842 10.37750059 3.3295884 8.75191503 2.5 7.125 C2.0359375 6.22007813 1.571875 5.31515625 1.09375 4.3828125 C0 2 0 2 0 0 Z " fill="#93c5fd" transform="translate(259,65)"/>
<path d="M0 0 C0.66 0 1.32 0 2 0 C2.33 1.98 2.66 3.96 3 6 C2.01 6.66 1.02 7.32 0 8 C-1.125 5.6875 -1.125 5.6875 -2 3 C-1.34 2.01 -0.68 1.02 0 0 Z " fill="#60a5fa" transform="translate(266,80)"/>
<path d="M0 0 C4.2742558 1.5830577 6.26531794 4.50568404 9 8 C8.67 8.66 8.34 9.32 8 10 C7.34 9.34 6.68 8.68 6 8 C3.93125966 7.3574765 3.93125966 7.3574765 2 7 C1.7834375 5.824375 1.7834375 5.824375 1.5625 4.625 C1.12201075 2.03578982 1.12201075 2.03578982 0 0 Z " fill="#93c5fd" transform="translate(147,30)"/>
<path d="M0 0 C3.25543229 0.34879632 4.01873107 1.02133261 6.25 3.5625 C6.8275 4.366875 7.405 5.17125 8 6 C5.125 5.75 5.125 5.75 2 5 C0 2.09090909 0 2.09090909 0 0 Z " fill="#1e40af" transform="translate(211,174)"/>
<path d="M0 0 C3.21043882 1.38188453 5.04936365 2.92421903 7.25 5.625 C8.03117188 6.57246094 8.03117188 6.57246094 8.828125 7.5390625 C9.40820312 8.26222656 9.40820312 8.26222656 10 9 C7 9 7 9 4.4375 6.75 C2.42724922 4.48202476 1.12774794 2.76810859 0 0 Z " fill="#1e40af" transform="translate(201,163)"/>
<path d="M0 0 C0.33 0 0.66 0 1 0 C1 1.65 1 3.3 1 5 C1.99 5 2.98 5 4 5 C4.33 7.97 4.66 10.94 5 14 C0.10570825 9.10570825 0.10570825 9.10570825 -0.1953125 5.95703125 C-0.13020833 3.97135417 -0.06510417 1.98567708 0 0 Z " fill="#3b82f6" transform="translate(220,54)"/>
<path d="M0 0 C0.99 0 1.98 0 3 0 C3.71614583 1.72526042 4.43229167 3.45052083 5.1484375 5.17578125 C6.06806692 7.26533932 6.06806692 7.26533932 8 10 C7.67 10.99 7.34 11.98 7 13 C5.82786955 11.21190303 4.66244474 9.41940875 3.5 7.625 C2.8503125 6.62726563 2.200625 5.62953125 1.53125 4.6015625 C0 2 0 2 0 0 Z " fill="#2563eb" transform="translate(269,140)"/>
<path d="M0 0 C1.32 0.33 2.64 0.66 4 1 C4.66 3.64 5.32 6.28 6 9 C5.01 8.67 4.02 8.34 3 8 C1.76132839 5.38502661 0.91496017 2.74488051 0 0 Z " fill="#3b82f6" transform="translate(265,131)"/>
<path d="M0 0 C0 0.99 0 1.98 0 3 C0.63106429 5.01151741 1.29373761 7.01363702 2 9 C0.68 8.67 -0.64 8.34 -2 8 C-2.6875 6.25 -2.6875 6.25 -3 4 C-1.5625 1.75 -1.5625 1.75 0 0 Z " fill="#5E6468" transform="translate(223,129)"/>
<path d="M0 0 C0.33 0.99 0.66 1.98 1 3 C-0.4375 5.6875 -0.4375 5.6875 -2 8 C-2.99 7.34 -3.98 6.68 -5 6 C-4.1875 3.5625 -4.1875 3.5625 -3 1 C-2.01 0.67 -1.02 0.34 0 0 Z " fill="#60a5fa" transform="translate(159,96)"/>
<path d="M0 0 C0.33 0 0.66 0 1 0 C1.14285714 7.42857143 1.14285714 7.42857143 0 11 C-0.66 11 -1.32 11 -2 11 C-1.85892253 9.54119891 -1.71197585 8.08296449 -1.5625 6.625 C-1.48128906 5.81289062 -1.40007812 5.00078125 -1.31640625 4.1640625 C-1 2 -1 2 0 0 Z " fill="#7E898B" transform="translate(214,112)"/>
<path d="M0 0 C0.33 0.66 0.66 1.32 1 2 C0.06553465 4.03144641 -0.93224776 6.03533587 -2 8 C-3.98 8 -5.96 8 -8 8 C-7.236875 7.4225 -6.47375 6.845 -5.6875 6.25 C-3.33799083 4.28296907 -1.70676495 2.51523256 0 0 Z " fill="#3b82f6" transform="translate(128,93)"/>
<path d="M0 0 C2 0 2 0 4.5 2.4375 C5.325 3.283125 6.15 4.12875 7 5 C7.66 5.33 8.32 5.66 9 6 C9 6.66 9 7.32 9 8 C7.35 8 5.7 8 4 8 C2.68 5.36 1.36 2.72 0 0 Z " fill="#60a5fa" transform="translate(231,76)"/>
<path d="M0 0 C0.99 0.33 1.98 0.66 3 1 C3.33 1.99 3.66 2.98 4 4 C3.01 4.66 2.02 5.32 1 6 C0.34 4.35 -0.32 2.7 -1 1 C-0.67 0.67 -0.34 0.34 0 0 Z " fill="#1e40af" transform="translate(300,185)"/>
<path d="M0 0 C1.00058075 3.00174224 1.31241431 4.87585686 1 8 C-0.5 9.8125 -0.5 9.8125 -2 11 C-3.13643966 7.59068103 -2.86747764 6.99664544 -1.5625 3.8125 C-1.13130859 2.73935547 -1.13130859 2.73935547 -0.69140625 1.64453125 C-0.46324219 1.10183594 -0.23507812 0.55914062 0 0 Z " fill="#2563eb" transform="translate(311,138)"/>
<path d="M0 0 C1.5625 1.25 1.5625 1.25 3 3 C2.6875 5.1875 2.6875 5.1875 2 7 C0.02 7 -1.96 7 -4 7 C-4 6.67 -4 6.34 -4 6 C-2.35 6 -0.7 6 1 6 C0.67 4.02 0.34 2.04 0 0 Z " fill="#1e3a8a" transform="translate(227,188)"/>
<path d="M0 0 C1.98 1.65 3.96 3.3 6 5 C5.01 5.33 4.02 5.66 3 6 C2.01 5.34 1.02 4.68 0 4 C0 2.68 0 1.36 0 0 Z " fill="#585C5B" transform="translate(233,107)"/>
<path d="M0 0 C0.66 0.33 1.32 0.66 2 1 C0.625 3 0.625 3 -1 5 C-1.66 5 -2.32 5 -3 5 C-2.625 3.0625 -2.625 3.0625 -2 1 C-1.34 0.67 -0.68 0.34 0 0 Z " fill="#1e3a8a" transform="translate(181,103)"/>
</svg>
