<?xml version="1.0"?>
<svg>
    <g id="SvgjsG3525" featurekey="symbolFeature-0"
       transform="matrix(0.962666893350788,0,0,0.962666893350788,67.27366272803006,75.37997762627722)"
       fill="url(#SvgjsLinearGradient3534)">
        <g xmlns="http://www.w3.org/2000/svg" display="none">
            <rect display="inline" fill="url(#SvgjsLinearGradient3534)" width="100" height="100"></rect>
            <rect x="-100" y="100" display="inline" fill="url(#SvgjsLinearGradient3534)" width="100"
                  height="100"></rect>
            <g display="inline">
                <circle fill="url(#SvgjsLinearGradient3534)" cx="-50" cy="-50" r="50"></circle>
                <circle fill="url(#SvgjsLinearGradient3534)" cx="50.333" cy="-50" r="50"></circle>
                <circle fill="url(#SvgjsLinearGradient3534)" cx="150" cy="-50" r="50"></circle>
                <circle fill="url(#SvgjsLinearGradient3534)" cx="-50" cy="50" r="50"></circle>
                <circle fill="url(#SvgjsLinearGradient3534)" cx="50" cy="50" r="50"></circle>
            </g>
            <g display="inline">
                <circle fill="url(#SvgjsLinearGradient3534)" cx="-50" cy="150" r="50"></circle>
                <circle fill="url(#SvgjsLinearGradient3534)" cx="50.333" cy="150" r="50"></circle>
                <circle fill="url(#SvgjsLinearGradient3534)" cx="150" cy="150" r="50"></circle>
            </g>
            <g display="inline" opacity="0.05">
                <g>
                    <g>
                        <g>
                            <line fill="none" stroke="url(#SvgjsLinearGradient3534)" stroke-width="0.5"
                                  stroke-miterlimit="10" x1="100" y1="-100" x2="200" y2="0"></line>
                            <line fill="none" stroke="url(#SvgjsLinearGradient3534)" stroke-width="0.5"
                                  stroke-miterlimit="10" x1="200" y1="-100" x2="100" y2="0"></line>
                        </g>
                    </g>
                    <g>
                        <g>
                            <line fill="none" stroke="url(#SvgjsLinearGradient3534)" stroke-width="0.5"
                                  stroke-miterlimit="10" x1="0" y1="-100" x2="100" y2="0"></line>
                            <line fill="none" stroke="url(#SvgjsLinearGradient3534)" stroke-width="0.5"
                                  stroke-miterlimit="10" x1="100" y1="-100" x2="0" y2="0"></line>
                        </g>
                    </g>
                    <g>
                        <g>
                            <line fill="none" stroke="url(#SvgjsLinearGradient3534)" stroke-width="0.5"
                                  stroke-miterlimit="10" x1="-100" y1="-100" x2="0" y2="0"></line>
                            <line fill="none" stroke="url(#SvgjsLinearGradient3534)" stroke-width="0.5"
                                  stroke-miterlimit="10" x1="0" y1="-100" x2="-100" y2="0"></line>
                        </g>
                    </g>
                </g>
                <g>
                    <g>
                        <g>
                            <line fill="none" stroke="url(#SvgjsLinearGradient3534)" stroke-width="0.5"
                                  stroke-miterlimit="10" x1="100" y1="0" x2="200" y2="100"></line>
                            <line fill="none" stroke="url(#SvgjsLinearGradient3534)" stroke-width="0.5"
                                  stroke-miterlimit="10" x1="200" y1="0" x2="100" y2="100"></line>
                        </g>
                    </g>
                    <g>
                        <g>
                            <line fill="none" stroke="url(#SvgjsLinearGradient3534)" stroke-width="0.5"
                                  stroke-miterlimit="10" x1="0" y1="0" x2="100" y2="100"></line>
                            <line fill="none" stroke="url(#SvgjsLinearGradient3534)" stroke-miterlimit="10" x1="49.5"
                                  y1="15" x2="49.5" y2="87"></line>
                            <line fill="none" stroke="url(#SvgjsLinearGradient3534)" stroke-miterlimit="10" x1="86"
                                  y1="50.5" x2="14" y2="50.5"></line>
                            <line fill="none" stroke="url(#SvgjsLinearGradient3534)" stroke-width="0.5"
                                  stroke-miterlimit="10" x1="100" y1="0" x2="0" y2="100"></line>
                            <g>
                                <path d="M85,15v71H14V15H85 M85.5,14.5H85H14h-0.5V15v71v0.5H14h71h0.5V86V15V14.5L85.5,14.5z"></path>
                            </g>
                        </g>
                    </g>
                    <g>
                        <g>
                            <line fill="none" stroke="url(#SvgjsLinearGradient3534)" stroke-width="0.5"
                                  stroke-miterlimit="10" x1="-100" y1="0" x2="0" y2="100"></line>
                            <line fill="none" stroke="url(#SvgjsLinearGradient3534)" stroke-width="0.5"
                                  stroke-miterlimit="10" x1="0" y1="0" x2="-100" y2="100"></line>
                        </g>
                    </g>
                </g>
                <g>
                    <g>
                        <g>
                            <line fill="none" stroke="url(#SvgjsLinearGradient3534)" stroke-width="0.5"
                                  stroke-miterlimit="10" x1="100" y1="100" x2="200" y2="200"></line>
                            <line fill="none" stroke="url(#SvgjsLinearGradient3534)" stroke-width="0.5"
                                  stroke-miterlimit="10" x1="200" y1="100" x2="100" y2="200"></line>
                        </g>
                    </g>
                    <g>
                        <g>
                            <line fill="none" stroke="url(#SvgjsLinearGradient3534)" stroke-width="0.5"
                                  stroke-miterlimit="10" x1="0" y1="100" x2="100" y2="200"></line>
                            <line fill="none" stroke="url(#SvgjsLinearGradient3534)" stroke-width="0.5"
                                  stroke-miterlimit="10" x1="100" y1="100" x2="0" y2="200"></line>
                        </g>
                    </g>
                    <g>
                        <g>
                            <line fill="none" stroke="url(#SvgjsLinearGradient3534)" stroke-width="0.5"
                                  stroke-miterlimit="10" x1="-100" y1="100" x2="0" y2="200"></line>
                            <line fill="none" stroke="url(#SvgjsLinearGradient3534)" stroke-width="0.5"
                                  stroke-miterlimit="10" x1="0" y1="100" x2="-100" y2="200"></line>
                        </g>
                    </g>
                </g>
            </g>
        </g>
        <g xmlns="http://www.w3.org/2000/svg">
            <g>
                <path d="M57.712,70.215H42.03c-0.828,0-1.5-0.672-1.5-1.5v-1.113c0-2.39-1.513-4.818-3.113-7.389    c-2.127-3.414-4.536-7.282-4.536-12.396c0-9.296,7.563-16.859,16.858-16.859s16.859,7.563,16.859,16.859    c0,4.357-2.1,7.982-4.13,11.489c-1.676,2.896-3.257,5.629-3.257,8.296v1.113C59.212,69.543,58.54,70.215,57.712,70.215z     M43.521,67.215h12.697c0.126-3.315,1.841-6.278,3.651-9.409c1.834-3.167,3.729-6.438,3.729-9.989    c0-7.642-6.218-13.859-13.859-13.859s-13.858,6.218-13.858,13.859c0,4.257,2.075,7.588,4.082,10.81    C41.646,61.33,43.386,64.122,43.521,67.215z"></path>
            </g>
            <g>
                <path d="M56.599,76.5H43.145c-0.828,0-1.5-0.672-1.5-1.5s0.672-1.5,1.5-1.5h13.454c0.828,0,1.5,0.672,1.5,1.5    S57.427,76.5,56.599,76.5z"></path>
            </g>
            <g>
                <path d="M53.961,82.5h-8.179c-0.828,0-1.5-0.672-1.5-1.5s0.672-1.5,1.5-1.5h8.179c0.828,0,1.5,0.672,1.5,1.5    S54.789,82.5,53.961,82.5z"></path>
            </g>
            <g>
                <path d="M49.739,25.706c-0.828,0-1.5-0.672-1.5-1.5v-7.519c0-0.828,0.672-1.5,1.5-1.5s1.5,0.672,1.5,1.5v7.519    C51.239,25.034,50.567,25.706,49.739,25.706z"></path>
            </g>
            <g>
                <path d="M66.755,32.301c-0.384,0-0.768-0.146-1.061-0.439c-0.586-0.586-0.586-1.535,0-2.121l5.54-5.539    c0.586-0.586,1.535-0.586,2.121,0s0.586,1.535,0,2.121l-5.54,5.539C67.522,32.154,67.139,32.301,66.755,32.301z"></path>
            </g>
            <g>
                <path d="M27.448,71.871c-0.372,0-0.745-0.138-1.036-0.415c-0.599-0.572-0.621-1.521-0.049-2.121l5.54-5.804    c0.573-0.598,1.521-0.621,2.121-0.049c0.599,0.572,0.621,1.521,0.049,2.121l-5.54,5.804    C28.238,71.716,27.844,71.871,27.448,71.871z"></path>
            </g>
            <g>
                <path d="M81,49.316h-7.255c-0.828,0-1.5-0.672-1.5-1.5s0.672-1.5,1.5-1.5H81c0.828,0,1.5,0.672,1.5,1.5S81.828,49.316,81,49.316z"></path>
            </g>
            <g>
                <path d="M25.998,49.316h-7.123c-0.828,0-1.5-0.672-1.5-1.5s0.672-1.5,1.5-1.5h7.123c0.828,0,1.5,0.672,1.5,1.5    S26.826,49.316,25.998,49.316z"></path>
            </g>
            <g>
                <path d="M32.856,32.434c-0.384,0-0.768-0.146-1.061-0.439l-5.276-5.276c-0.586-0.586-0.586-1.535,0-2.121s1.535-0.586,2.121,0    l5.276,5.276c0.586,0.586,0.586,1.535,0,2.121C33.624,32.287,33.24,32.434,32.856,32.434z"></path>
            </g>
            <g>
                <path d="M72.163,71.476c-0.384,0-0.768-0.146-1.061-0.439l-5.276-5.276c-0.586-0.586-0.586-1.535,0-2.121s1.535-0.586,2.121,0    l5.276,5.276c0.586,0.586,0.586,1.535,0,2.121C72.931,71.329,72.547,71.476,72.163,71.476z"></path>
            </g>
            <g>
                <path d="M43.556,55.327c-0.384,0-0.768-0.146-1.061-0.439c-3.998-3.999-3.998-10.506,0-14.505c4.001-3.998,10.507-3.997,14.504,0    c0.586,0.586,0.586,1.535,0,2.121s-1.535,0.586-2.121,0c-2.828-2.828-7.432-2.828-10.262,0c-2.828,2.829-2.828,7.434,0,10.263    c0.586,0.586,0.586,1.536,0,2.121C44.323,55.181,43.939,55.327,43.556,55.327z"></path>
            </g>
        </g>
    </g>
</svg>
